<svg width="115" height="132" viewBox="0 0 115 132" fill="none" xmlns="http://www.w3.org/2000/svg">
<g clip-path="url(#clip0_301_413)">
<g filter="url(#filter0_d_301_413)">
<path d="M23.6408 95.8497C21.1241 98.8218 16.9654 102.669 18.2358 113.059C19.5421 123.63 21.2439 139.209 21.2439 139.209L31.7303 133.217L23.6408 95.8497Z" fill="#5D82E3"/>
<path d="M54.4168 54.0359C54.4168 54.0359 56.3583 62.1014 57.6646 66.1642C58.3746 68.7398 59.3969 71.219 60.7087 73.5466C62.4105 76.2191 71.9741 83.8652 71.9741 83.8652C71.9741 83.8652 46.603 100.967 38.7052 101.842C30.8074 102.717 34.0672 85.8426 34.0672 85.8426C34.0672 85.8426 39.7359 78.7718 40.6467 75.1885C41.5575 71.6051 41.198 61.5501 41.198 61.5501L54.4168 54.0359Z" fill="url(#paint0_linear_301_413)"/>
<path d="M25.0911 30.846C22.85 32.4999 19.0989 35.9034 19.0989 38.1206C19.0989 40.3377 18.967 46.8692 19.6981 50.6084C20.4291 54.3475 21.7115 61.3944 22.85 65.7447C23.9885 70.0951 28.8422 78.1487 30.1246 78.8198C31.4069 79.4909 39.017 79.0954 41.2941 77.7412C43.5711 76.3869 55.999 65.1695 54.5609 55.7497C54.5609 55.7497 57.4731 56.4328 60.1816 47.5763C60.8887 45.2633 52.7992 31.613 51.5408 29.1202C48.4847 23.128 34.0315 32.2482 30.2324 32.1643C26.4333 32.0804 25.0911 30.846 25.0911 30.846Z" fill="url(#paint1_linear_301_413)"/>
<path d="M31.083 36.3589C41.1979 32.392 43.7146 34.5492 44.2659 40.3617C44.4576 42.3391 48.6402 44.8798 49.0597 46.7494C49.4791 48.619 51.6962 49.374 51.6962 49.374L52.7868 54.9827C52.96 56.5624 53.2933 58.1204 53.7815 59.6327C54.6366 61.4101 55.7292 63.0631 57.0293 64.5463C57.0293 64.5463 55.8309 60.6753 59.3303 55.4741C67.7195 43.1061 55.3994 27.79 44.949 22.7445C39.556 20.1319 32.7368 23.7153 28.9497 29.0603C24.4795 35.3761 26.9244 37.9887 31.083 36.3589Z" fill="url(#paint2_linear_301_413)"/>
<path d="M51.1212 52.1544C50.8185 49.585 50.7623 46.9925 50.9534 44.4124L48.5565 44.5442C48.5565 44.5442 48.2329 52.9334 48.125 57.5354C48.0172 62.1374 46.5431 64.4145 43.9185 64.0549C41.2939 63.6954 39.5322 60.6993 37.1593 59.9682C34.2883 59.0248 31.202 58.9539 28.2908 59.7645C26.528 60.312 25.0541 61.5359 24.1921 63.1681C23.4251 64.6182 23.3412 67.7821 24.6115 71.6531C25.8819 75.5241 27.4039 78.7479 31.2749 80.0422C35.1459 81.3365 41.0183 80.3538 45.2488 77.4655C49.0063 74.8828 51.5909 70.9198 52.4394 66.4398C52.811 63.1082 51.6365 55.3662 51.1212 52.1544ZM38.8131 71.737C36.9435 72.6837 33.5639 71.5812 33.0007 70.4546C32.4374 69.3281 32.0539 69.3401 31.4906 69.1483C30.9273 68.9566 30.5558 70.0951 29.8128 71.5452C29.0698 72.9953 27.4159 72.8755 26.4452 70.6344C25.5745 68.7557 25.4293 66.6214 26.0377 64.6422C26.6489 62.5449 29.9446 61.0468 34.259 61.4064C38.5734 61.7659 39.5082 63.6355 40.0835 65.0017C40.6587 66.3679 40.6707 70.7902 38.8131 71.737Z" fill="url(#paint3_linear_301_413)"/>
<path d="M20.8364 345.846C20.8364 345.846 31.958 349.189 49.5991 348.818C52.3795 348.758 55.3277 348.614 58.4197 348.338C85.3248 345.941 102.642 348.159 111.235 346.145C111.619 346.061 111.978 345.953 112.314 345.858C112.314 345.858 104.296 229.237 102.163 214.196C101.576 209.99 98.2081 175.738 94.433 148.641C92.0361 131.959 95.8711 105.198 88.9321 93.1292C85.6604 87.4366 66.9526 78.7479 66.9526 78.7479C66.9526 78.7479 56.8857 91.5593 44.6975 92.9015C33.3362 94.2078 34.5946 83.8533 34.5946 83.8533L23.6408 95.8497C22.0572 107.313 21.2085 118.865 21.1001 130.437C21.1001 139.197 20.2851 156.515 21.5076 174.216C21.2199 188.681 22.8378 213.597 21.2799 245.176C18.847 293.881 20.8364 345.846 20.8364 345.846Z" fill="#304BC9"/>
<path d="M61.9191 48.6549C58.3571 45.4647 54.1275 43.1103 49.5392 41.7639C42.8373 39.8279 35.8526 39.0577 28.89 39.4868C21.6394 40.0381 18.6792 41.8238 18.6792 41.8238C18.6792 41.8238 19.2425 34.0579 21.5075 29.0364C23.9044 23.6673 30.9153 18.7537 47.382 22.0854C50.7467 22.7767 53.8554 24.3834 56.3654 26.7285C58.8754 29.0736 60.6894 32.0661 61.6075 35.3762C63.1895 40.8291 61.9191 48.6549 61.9191 48.6549Z" fill="white"/>
<path d="M50.1385 47.2527C50.9654 44.3884 51.7444 41.7998 54.5488 41.9915C57.3531 42.1833 59.5702 45.2034 56.9456 49.6136C54.3211 54.0239 52.7031 54.9827 52.7031 54.9827C52.7031 54.9827 49.8868 48.1036 50.1385 47.2527Z" fill="url(#paint4_linear_301_413)"/>
<path d="M66.8926 78.7958C63.5062 83.6679 59.4746 88.0583 54.9082 91.8469C53.0715 93.3592 50.9452 94.4805 48.6598 95.142C46.3744 95.8035 43.978 95.9913 41.6174 95.6939L42.8159 89.1743C42.8159 89.1743 47.9572 88.1557 53.9015 82.6548C59.8458 77.1539 63.1895 74.0979 63.1895 74.0979L66.8926 78.7958Z" fill="url(#paint5_linear_301_413)"/>
<path d="M41.6176 95.6939L40.2993 88.8028C40.2993 88.8028 36.9197 84.6442 36.5841 81.5402L32.9169 84.5124C32.9169 84.5124 31.7184 87.928 36.9436 92.9854C38.1998 94.3302 39.8262 95.2727 41.6176 95.6939Z" fill="url(#paint6_linear_301_413)"/>
<path d="M34.2709 154.394C34.5705 151.218 34.2709 146.568 34.4267 143.392L46.3393 145.19C50.0171 138.793 53.2215 132.136 55.9268 125.272C60.6487 112.089 64.1122 96.7366 73.7837 91.5233C78.2659 89.1264 93.6779 87.6643 92.1199 106.025C90.9215 119.579 86.4393 128.256 82.8439 137.184C79.2486 146.113 63.1894 174.683 55.8669 175.738C54.261 175.966 40.9343 171.687 32.5452 167.984C33.0845 164.317 33.9234 157.917 34.2709 154.394Z" fill="#4A74E3"/>
<path d="M41.6296 95.6939L40.551 126.853L44.7935 130.437" stroke="#4A74E3" stroke-width="1.19845" stroke-miterlimit="10"/>
<path d="M45.7521 104.73C46.5464 104.73 47.1902 104.086 47.1902 103.292C47.1902 102.498 46.5464 101.854 45.7521 101.854C44.9578 101.854 44.314 102.498 44.314 103.292C44.314 104.086 44.9578 104.73 45.7521 104.73Z" fill="#4A74E3"/>
<path d="M45.7521 122.563C46.5464 122.563 47.1902 121.919 47.1902 121.125C47.1902 120.331 46.5464 119.687 45.7521 119.687C44.9578 119.687 44.314 120.331 44.314 121.125C44.314 121.919 44.9578 122.563 45.7521 122.563Z" fill="#4A74E3"/>
</g>
</g>
<defs>
<filter id="filter0_d_301_413" x="-18.78" y="-16.9784" width="167.874" height="478.371" filterUnits="userSpaceOnUse" color-interpolation-filters="sRGB">
<feFlood flood-opacity="0" result="BackgroundImageFix"/>
<feColorMatrix in="SourceAlpha" type="matrix" values="0 0 0 0 0 0 0 0 0 0 0 0 0 0 0 0 0 0 127 0" result="hardAlpha"/>
<feOffset dy="-1.19845"/>
<feGaussianBlur stdDeviation="18.39"/>
<feComposite in2="hardAlpha" operator="out"/>
<feColorMatrix type="matrix" values="0 0 0 0 0 0 0 0 0 0.170333 0 0 0 0 0.608333 0 0 0 0.18 0"/>
<feBlend mode="normal" in2="BackgroundImageFix" result="effect1_dropShadow_301_413"/>
<feBlend mode="normal" in="SourceGraphic" in2="effect1_dropShadow_301_413" result="shape"/>
</filter>
<linearGradient id="paint0_linear_301_413" x1="70.3668" y1="74.5939" x2="31.2848" y2="78.9363" gradientUnits="userSpaceOnUse">
<stop stop-color="#F8C1A9"/>
<stop offset="1" stop-color="#EBA789"/>
</linearGradient>
<linearGradient id="paint1_linear_301_413" x1="59.9341" y1="50.4218" x2="19.6181" y2="54.9013" gradientUnits="userSpaceOnUse">
<stop stop-color="#F8C1A9"/>
<stop offset="1" stop-color="#EBA789"/>
</linearGradient>
<linearGradient id="paint2_linear_301_413" x1="28.7575" y1="25.7078" x2="63.4931" y2="53.1612" gradientUnits="userSpaceOnUse">
<stop stop-color="#8E5A3A"/>
<stop offset="1" stop-color="#523115"/>
</linearGradient>
<linearGradient id="paint3_linear_301_413" x1="10.8685" y1="38.5295" x2="50.2537" y2="69.6701" gradientUnits="userSpaceOnUse">
<stop stop-color="#8E5A3A"/>
<stop offset="1" stop-color="#523115"/>
</linearGradient>
<linearGradient id="paint4_linear_301_413" x1="57.6757" y1="47.3936" x2="49.5959" y2="48.2914" gradientUnits="userSpaceOnUse">
<stop stop-color="#F8C1A9"/>
<stop offset="1" stop-color="#EBA789"/>
</linearGradient>
<linearGradient id="paint5_linear_301_413" x1="66.7626" y1="82.8016" x2="40.1147" y2="85.7625" gradientUnits="userSpaceOnUse">
<stop stop-color="#EEEEEE"/>
<stop offset="1" stop-color="#D5D5D5"/>
</linearGradient>
<linearGradient id="paint6_linear_301_413" x1="40.3389" y1="87.7795" x2="32.71" y2="88.6271" gradientUnits="userSpaceOnUse">
<stop stop-color="#EEEEEE"/>
<stop offset="1" stop-color="#D5D5D5"/>
</linearGradient>
<clipPath id="clip0_301_413">
<rect width="115" height="132" fill="white"/>
</clipPath>
</defs>
</svg>
