<svg width="111" height="132" viewBox="0 0 111 132" fill="none" xmlns="http://www.w3.org/2000/svg">
<g clip-path="url(#clip0_301_381)">
<g filter="url(#filter0_d_301_381)">
<g style="mix-blend-mode:multiply">
<path d="M91.991 200.156C87.4787 199.052 83.165 197.861 79.8553 197.353C72.585 196.25 65.2043 195.059 58.5849 191.837C44.2428 184.92 35.4168 169.463 21.2623 162.226C21.1299 147.884 20.6444 138.804 20.2252 137.458C18.6696 132.505 22.4317 119.387 25.929 111.83C32.0067 108.03 38.3105 104.603 44.8054 101.57C46.2234 100.786 47.7993 100.33 49.4169 100.235C52.1861 100.235 54.4588 102.298 56.4556 104.207L87.3463 133.796C88.1528 137.956 88.6909 142.165 88.9571 146.395C89.1777 151.381 90.4575 173.567 91.991 200.156Z" fill="#FFD1CD"/>
</g>
<path d="M100.089 177.837C98.1719 184.604 95.8133 191.237 93.0281 197.695C88.0051 196.186 83.3038 193.762 79.1604 190.546C73.9641 186.365 70.8309 179.591 62.3029 174.77L62.2036 174.704C59.4598 173.024 57.225 170.629 55.7386 167.775C46.9127 152.187 49.3729 121.936 45.1806 137.028C44.5908 139.138 43.8686 141.209 43.0182 143.228C42.7424 143.89 42.4776 144.508 42.1908 145.093C39.1458 151.712 36.1009 154.592 35.0528 165.084C34.9315 166.374 24.4066 192.102 24.4066 192.102C23.3716 184.605 21.8981 177.174 19.9936 169.85C19.8392 169.331 19.6737 168.813 19.5192 168.327C17.2257 161.222 16.0387 153.806 15.9999 146.34C16.1323 125.996 16.6839 119.586 18.1512 114.621C21.0968 104.593 25.6753 88.8387 27.7714 83.4549C28.2458 82.2303 28.7975 80.8402 29.3711 79.3398C30.7943 75.677 32.4161 71.3413 33.7841 67.2042C34.3468 65.5493 34.8873 63.8944 35.3397 62.383L55.9372 50.1481L56.5881 49.7619L70.2903 41.6311C70.2903 41.6311 78.3991 71.1206 81.775 83.2453C85.1509 95.3699 98.2905 126.68 100.839 138.341C101.951 143.829 102.539 149.411 102.593 155.011C102.83 162.699 101.987 170.383 100.089 177.837Z" fill="white"/>
<path d="M55.3083 76.3279C55.6172 72.8748 55.9371 69.4217 56.246 65.9575C53.499 72.1577 48.1593 73.6802 42.0032 76.5706C39.4326 77.7511 32.416 71.3413 33.8172 67.1821C35.8367 68.4999 38.0072 69.5704 40.2821 70.3704C40.8624 70.6191 41.4969 70.7141 42.1246 70.6463C42.753 70.4746 43.3267 70.1441 43.7904 69.6864C46.7842 67.1323 49.5356 64.307 52.0096 61.2466C53.7274 59.3435 55.0011 57.0826 55.7385 54.6272C56.0676 53.1799 56.1349 51.6853 55.9371 50.2142C55.6703 48.3115 55.2497 46.4335 54.6794 44.5988C55.3855 46.3088 56.0364 48.0629 56.588 49.8281C57.7611 53.2871 58.5022 56.8778 58.7945 60.5185C59.2545 66.0194 58.0392 71.5307 55.3083 76.3279Z" fill="#DDD1F3"/>
<path d="M34.2585 30.9076C28.1356 32.3528 25.9291 31.8012 25.0244 34.3276C24.1198 36.854 22.8952 47.732 23.0938 51.8802C23.2923 56.0283 27.8928 65.119 29.8015 67.7668C31.7101 70.4146 37.5241 69.3114 37.5241 69.3114L43.4375 46.2757L34.2585 30.9076Z" fill="#DDD1F3"/>
<path d="M28.4996 34.6696C27.7825 37.8911 26.0836 47.3017 26.0063 49.7178C25.9291 52.1339 27.3082 54.5941 27.4295 58.0362C27.5509 61.4783 26.8779 64.1261 28.8086 68.1529C30.7392 72.1798 32.361 75.8756 33.5525 76.9788C34.744 78.0821 37.3587 79.0419 42.0033 76.6037C46.6479 74.1656 50.741 70.0726 52.2634 67.2372C53.7859 64.4019 56.4668 58.6209 56.6764 53.0716C56.886 47.5223 49.726 35.1771 49.726 35.1771L28.4996 34.6696Z" fill="url(#paint0_linear_301_381)"/>
<path d="M52.0427 39.4687C50.763 36.9423 49.7259 35.155 49.7259 35.155L28.4996 34.6696C28.0914 36.4789 27.3963 40.1858 26.8227 43.6169C35.0961 41.5193 43.5334 40.1316 52.0427 39.4687Z" fill="#C31952"/>
<path d="M25.0245 34.3276C25.4156 35.1045 25.956 35.7966 26.6148 36.3645C27.2735 36.9324 28.0377 37.365 28.8637 37.6374C31.6439 38.8509 49.1744 55.5981 51.5794 58.2238C52.7714 59.4477 53.8773 60.7527 54.8892 62.1293L70.3345 64.5454C70.3345 64.5454 70.9634 47.9968 70.3345 41.6531C69.7057 35.3095 65.4141 27.642 63.351 26.4946C61.288 25.3473 50.1121 21.1991 44.4636 22.1368C38.815 23.0746 31.2247 29.1093 28.1466 31.713L25.0245 34.3276Z" fill="white"/>
<path d="M89.1335 157.096C88.9349 165.492 83.3746 161.255 76.369 164.024C73.28 165.238 72.3422 168.437 71.9561 171.438C71.4596 175.289 71.8789 178.918 69.9261 178.058C68.6464 177.484 65.6787 176.403 62.3027 174.748C56.4776 171.935 49.461 167.5 47.9606 161.123C46.1954 153.797 44.7281 148.039 43.1395 143.25C40.6792 135.815 37.9542 130.74 33.4641 125.841L42.8857 126.536C43.7035 124.566 44.4215 122.555 45.037 120.513C45.9196 117.49 46.4712 102.64 51.833 99.6946C57.1947 96.7489 64.4761 76.4273 71.7023 77.8946C80.109 79.6046 87.1477 102.056 88.8577 115.504C90.5677 128.953 89.3542 148.712 89.1335 157.096Z" fill="white"/>
<path d="M49.8142 113.904C51.2087 111.832 52.3704 109.612 53.2784 107.285C54.7567 103.104 54.5802 98.3156 57.1066 94.6087C56.5329 100.268 55.7386 105.906 54.7126 111.488C54.2161 114.202 53.5542 117.082 51.3477 118.924C52.0954 117.412 52.5093 115.756 52.5613 114.07C50.4028 118.65 47.6625 122.933 44.4083 126.812C50.2014 122.7 57.164 120.561 64.2666 120.711C57.5306 122.362 51.0764 125.001 45.1144 128.544L54.6795 128.688C51.8545 129.707 48.8512 130.139 45.8536 129.956C49.5588 130.51 53.1182 131.79 56.3273 133.723C59.5364 135.656 62.332 138.204 64.5535 141.221C57.9378 137.184 50.9475 133.796 43.6802 131.104C46.0484 133.314 47.7752 136.124 48.6778 139.235C44.8845 133.707 39.5745 129.393 33.3869 126.812C43.0182 130.916 46.6148 119.001 49.8142 113.904Z" fill="#DDD1F3"/>
<path d="M58.8276 62.725C58.3422 58.6761 58.4967 55.0023 56.6212 49.7619C56.6212 49.7619 57.4596 56.9881 54.878 62.0961L58.7063 65.7809L58.8276 62.725Z" fill="#DDD1F3"/>
<path d="M27.2199 100.224C29.0181 108.101 34.777 108.201 42.0253 103.534C48.1704 99.6063 56.8308 85.6944 56.8308 85.6944C56.8308 85.6944 46.0632 107.583 35.8693 109.844C25.6753 112.106 27.2199 100.224 27.2199 100.224Z" fill="#DDD1F3"/>
</g>
</g>
<defs>
<filter id="filter0_d_301_381" x="-20.78" y="-15.9784" width="160.192" height="251.716" filterUnits="userSpaceOnUse" color-interpolation-filters="sRGB">
<feFlood flood-opacity="0" result="BackgroundImageFix"/>
<feColorMatrix in="SourceAlpha" type="matrix" values="0 0 0 0 0 0 0 0 0 0 0 0 0 0 0 0 0 0 127 0" result="hardAlpha"/>
<feOffset dy="-1.19845"/>
<feGaussianBlur stdDeviation="18.39"/>
<feComposite in2="hardAlpha" operator="out"/>
<feColorMatrix type="matrix" values="0 0 0 0 1 0 0 0 0 0 0 0 0 0 0 0 0 0 0.1 0"/>
<feBlend mode="normal" in2="BackgroundImageFix" result="effect1_dropShadow_301_381"/>
<feBlend mode="normal" in="SourceGraphic" in2="effect1_dropShadow_301_381" result="shape"/>
</filter>
<linearGradient id="paint0_linear_301_381" x1="25.9953" y1="56.3814" x2="56.6764" y2="56.3814" gradientUnits="userSpaceOnUse">
<stop stop-color="#FFDFD1"/>
<stop offset="1" stop-color="#F5C2AB"/>
</linearGradient>
<clipPath id="clip0_301_381">
<rect width="111" height="132" fill="white"/>
</clipPath>
</defs>
</svg>
